<?xml version="1.0" standalone="no"?>
<!DOCTYPE svg PUBLIC "-//W3C//DTD SVG 20010904//EN"
 "http://www.w3.org/TR/2001/REC-SVG-20010904/DTD/svg10.dtd">
<svg version="1.0" xmlns="http://www.w3.org/2000/svg"
 width="120.000000pt" height="120.000000pt" viewBox="0 0 120.000000 120.000000"
 preserveAspectRatio="xMidYMid meet">
<metadata>
Created by potrace 1.14, written by Peter Selinger 2001-2017
</metadata>
<g transform="translate(0.000000,120.000000) scale(0.100000,-0.100000)"
fill="#000000" stroke="none">
<path d="M206 1107 c-10 -7 -29 -12 -42 -9 -28 5 -84 -45 -84 -76 0 -10 -11
-24 -25 -30 -29 -13 -42 -55 -28 -92 6 -17 6 -33 -1 -49 -7 -17 -6 -30 8 -56
13 -24 20 -69 26 -176 4 -79 12 -158 18 -175 26 -83 70 -153 142 -225 113
-114 221 -159 380 -159 106 1 156 12 246 56 125 61 229 184 273 321 16 51 22
100 25 199 3 105 7 136 22 159 14 21 15 33 8 54 -6 16 -6 36 -1 52 14 37 1 78
-28 91 -14 6 -25 20 -25 30 0 28 -55 80 -82 77 -13 -1 -36 4 -51 11 -23 11
-35 11 -62 1 -18 -6 -45 -9 -59 -5 -14 3 -34 3 -43 0 -14 -6 -7 -13 31 -35
112 -66 201 -172 240 -286 32 -95 32 -168 -2 -287 -17 -58 -40 -125 -52 -149
-28 -54 -109 -140 -169 -178 -60 -39 -188 -81 -244 -81 -73 0 -191 27 -254 57
-66 32 -172 132 -201 190 -23 44 -80 238 -89 298 -7 53 18 151 59 226 34 65
157 189 213 216 44 21 36 33 -23 32 -26 -1 -60 2 -77 6 -19 4 -37 1 -49 -8z"/>
<path d="M375 1021 c-23 -10 -49 -38 -58 -63 -11 -30 9 -28 32 2 31 43 81 42
122 -2 31 -35 38 -25 14 21 -8 16 -28 34 -46 40 -36 13 -37 13 -64 2z"/>
<path d="M754 1020 c-27 -11 -54 -48 -54 -75 0 -17 4 -15 26 13 36 45 83 45
125 0 22 -25 29 -29 29 -15 0 29 -18 56 -50 72 -32 17 -45 18 -76 5z"/>
<path d="M342 895 c-54 -45 -80 -146 -63 -240 24 -131 125 -180 208 -103 l22
21 -6 -36 c-4 -29 -1 -40 20 -61 34 -34 101 -36 141 -5 38 30 37 90 -3 130
-33 33 -67 37 -113 13 -29 -15 -31 -15 -23 2 4 11 9 47 12 80 14 163 -100 279
-195 199z m111 -33 c91 -101 35 -351 -68 -304 -108 49 -89 322 23 322 16 0 36
-8 45 -18z m172 -262 c4 -6 -8 -10 -30 -10 -22 0 -34 4 -30 10 3 6 17 10 30
10 13 0 27 -4 30 -10z"/>
<path d="M380 794 c-14 -35 -12 -128 2 -159 24 -54 68 -6 68 76 0 63 -17 109
-41 109 -12 0 -23 -10 -29 -26z"/>
<path d="M722 890 c-84 -83 -79 -289 8 -352 63 -45 136 -22 174 56 26 53 27
165 3 228 -38 97 -125 129 -185 68z m123 -36 c30 -32 50 -117 41 -176 -13 -89
-71 -145 -121 -118 -76 41 -87 226 -18 302 24 26 70 23 98 -8z"/>
<path d="M760 790 c-17 -42 -9 -146 14 -168 16 -16 18 -16 37 7 21 26 27 120
9 165 -13 36 -44 34 -60 -4z"/>
<path d="M196 548 c-22 -31 -20 -43 8 -56 47 -21 95 27 61 62 -23 22 -51 20
-69 -6z"/>
<path d="M928 559 c-40 -23 -6 -74 45 -67 29 4 36 47 11 65 -21 15 -33 16 -56
2z"/>
<path d="M254 475 c-21 -21 -24 -31 -19 -58 20 -96 101 -188 203 -229 83 -33
242 -32 327 1 86 35 168 118 190 195 15 52 15 59 1 81 -21 32 -52 40 -79 21
-120 -89 -183 -110 -301 -104 -90 5 -162 32 -230 87 -47 38 -59 38 -92 6z
m220 -160 c27 -8 82 -15 121 -15 86 0 153 19 219 60 26 17 50 29 52 27 2 -2
-9 -21 -24 -43 -35 -48 -112 -91 -188 -105 -106 -20 -246 26 -300 97 -37 48
-29 56 24 23 26 -16 69 -36 96 -44z"/>
</g>
</svg>
