<?xml version="1.0" encoding="utf-8"?>
<!-- Generator: Adobe Illustrator 21.1.0, SVG Export Plug-In . SVG Version: 6.00 Build 0)  -->
<svg version="1.1" id="Icons" xmlns="http://www.w3.org/2000/svg" xmlns:xlink="http://www.w3.org/1999/xlink" x="0px" y="0px"
	 viewBox="0 0 48 48" style="enable-background:new 0 0 48 48;" xml:space="preserve">
<style type="text/css">
	.st0{fill:#FFE500;}
	.st1{fill:#EBCB00;}
	.st2{fill:#FFF48C;}
	.st3{opacity:0.15;fill:#45413C;}
	.st4{fill:none;stroke:#45413C;stroke-linecap:round;stroke-linejoin:round;stroke-miterlimit:10;}
	.st5{fill:#FFAA54;}
	.st6{fill:#FFB0CA;stroke:#45413C;stroke-linecap:round;stroke-linejoin:round;stroke-miterlimit:10;}
	.st7{fill:#FF87AF;stroke:#45413C;stroke-linecap:round;stroke-linejoin:round;stroke-miterlimit:10;}
	.st8{fill:#00B8F0;}
	.st9{fill:#4ACFFF;}
	.st10{fill:#FFFFFF;stroke:#45413C;stroke-linecap:round;stroke-linejoin:round;stroke-miterlimit:10;}
	.st11{fill:#45413C;stroke:#45413C;stroke-linecap:round;stroke-linejoin:round;stroke-miterlimit:10;}
	.st12{fill:#009FD9;}
	.st13{fill:none;stroke:#45413C;stroke-linecap:round;stroke-miterlimit:10;}
	.st14{fill:#FFFFFF;stroke:#45413C;stroke-linejoin:round;stroke-miterlimit:10;}
	.st15{fill:#FF6242;}
	.st16{fill:#FF866E;}
	.st17{fill:#656769;}
	.st18{fill:#87898C;}
	.st19{fill:#4AEFF7;stroke:#45413C;stroke-linecap:round;stroke-linejoin:round;stroke-miterlimit:10;}
	.st20{fill:none;stroke:#48CF3E;stroke-linecap:round;stroke-linejoin:round;stroke-miterlimit:10;}
	.st21{fill:none;stroke:#FF4064;stroke-linecap:round;stroke-linejoin:round;stroke-miterlimit:10;}
	.st22{fill:none;stroke:#FFB700;stroke-linecap:round;stroke-linejoin:round;stroke-miterlimit:10;}
	.st23{fill:none;stroke:#00AED9;stroke-linecap:round;stroke-linejoin:round;stroke-miterlimit:10;}
	.st24{fill:#FFFACF;}
	.st25{fill:#45413C;}
	.st26{fill:#FF866E;stroke:#45413C;stroke-linecap:round;stroke-linejoin:round;stroke-miterlimit:10;}
	.st27{fill:#DABFF5;stroke:#45413C;stroke-linejoin:round;stroke-miterlimit:10;}
	.st28{fill:#EDDBFF;}
	.st29{fill:none;stroke:#45413C;stroke-linejoin:round;stroke-miterlimit:10;}
	.st30{fill:#6DD627;}
	.st31{fill:#46B000;}
	.st32{fill:#C8FFA1;}
	.st33{fill:url(#XMLID_91_);}
	.st34{fill:url(#XMLID_92_);}
	.st35{fill:#F0F0F0;stroke:#45413C;stroke-linecap:round;stroke-linejoin:round;stroke-miterlimit:10;}
	.st36{fill:#EBCB00;stroke:#45413C;stroke-linecap:round;stroke-linejoin:round;stroke-miterlimit:10;}
	.st37{fill:#BDBEC0;stroke:#45413C;stroke-linecap:round;stroke-linejoin:round;stroke-miterlimit:10;}
	.st38{fill:#F0F0F0;}
	.st39{fill:#FFFFFF;}
	.st40{fill:url(#XMLID_93_);}
	.st41{fill:url(#XMLID_94_);}
	.st42{fill:#FFE500;stroke:#45413C;stroke-linecap:round;stroke-linejoin:round;stroke-miterlimit:10;}
	.st43{fill:#E04122;}
	.st44{fill:#8CFFE4;stroke:#45413C;stroke-linecap:round;stroke-linejoin:round;stroke-miterlimit:10;}
	.st45{fill:#E5FFF9;}
	.st46{fill:#E0E0E0;}
	.st47{fill:#9CEB60;}
	.st48{fill:#6DD627;stroke:#45413C;stroke-linecap:round;stroke-linejoin:round;stroke-miterlimit:10;}
	.st49{fill:#E8F4FA;}
	.st50{fill:#F0D5A8;}
	.st51{fill:#DEBB7E;}
	.st52{fill:#B89558;}
	.st53{fill:#00B8F0;stroke:#45413C;stroke-linecap:round;stroke-linejoin:round;stroke-miterlimit:10;}
	.st54{fill:#FFFCE5;}
	.st55{fill:#FF87AF;}
	.st56{fill:#4ACFFF;stroke:#45413C;stroke-linecap:round;stroke-linejoin:round;stroke-miterlimit:10;}
	.st57{fill:#E5F8FF;}
	.st58{fill:none;stroke:#45413C;stroke-miterlimit:10;}
	.st59{fill:none;stroke:#FF6242;stroke-linecap:round;stroke-linejoin:round;stroke-miterlimit:10;}
	.st60{fill:#BDBEC0;}
	.st61{fill:#B89558;stroke:#45413C;stroke-linecap:round;stroke-linejoin:round;stroke-miterlimit:10;}
	.st62{fill:#FF6242;stroke:#45413C;stroke-linecap:round;stroke-linejoin:round;stroke-miterlimit:10;}
	.st63{fill:#525252;stroke:#45413C;stroke-linecap:round;stroke-linejoin:round;stroke-miterlimit:10;}
	.st64{fill:#525252;}
	.st65{fill:#00DBA8;}
	.st66{fill:#00AD85;}
	.st67{fill:#BF8DF2;}
	.st68{fill:#DABFF5;}
	.st69{fill:#00F5BC;}
	.st70{fill:#DAEDF7;}
	.st71{fill:#C0DCEB;}
	.st72{fill:#ADC4D9;}
	.st73{fill:#ADC4D9;stroke:#45413C;stroke-linecap:round;stroke-linejoin:round;stroke-miterlimit:10;}
	.st74{fill:#00DFEB;stroke:#45413C;stroke-linecap:round;stroke-linejoin:round;stroke-miterlimit:10;}
	.st75{fill:#627B8C;stroke:#45413C;stroke-linecap:round;stroke-linejoin:round;stroke-miterlimit:10;}
	.st76{fill:#8CA4B8;}
	.st77{fill:#00DBA8;stroke:#45413C;stroke-linecap:round;stroke-linejoin:round;stroke-miterlimit:10;}
	.st78{fill:#FF8A14;}
	.st79{fill:#BF8256;}
	.st80{fill:#DEA47A;}
	.st81{fill:#915E3A;}
	.st82{fill:#FFA694;}
	.st83{fill:#E5FEFF;stroke:#45413C;stroke-linecap:round;stroke-linejoin:round;stroke-miterlimit:10;}
	.st84{fill:#803EC2;stroke:#45413C;stroke-linecap:round;stroke-linejoin:round;stroke-miterlimit:10;}
	.st85{fill:#9F5AE5;}
	.st86{fill:#803EC2;}
</style>
<g id="XMLID_737_">
	<ellipse id="XMLID_2425_" class="st3" cx="24" cy="45.5" rx="16" ry="1.5"/>
	<path id="XMLID_391_" class="st53" d="M42.7,9.6C43.2,8.9,43.5,8,43.5,7c0-2.5-2-4.5-4.5-4.5c-1,0-1.9,0.3-2.6,0.8
		c-0.3-1.1-1.2-1.8-2.4-1.8c-1.4,0-2.5,1.1-2.5,2.5s1.1,2.5,2.5,2.5c0.2,0,0.4,0,0.6-0.1c0,0.2-0.1,0.4-0.1,0.6c0,2.5,2,4.5,4.5,4.5
		c0.2,0,0.4,0,0.6-0.1c0,0.2-0.1,0.4-0.1,0.6c0,1.4,1.1,2.5,2.5,2.5c1.4,0,2.5-1.1,2.5-2.5C44.5,10.9,43.7,9.9,42.7,9.6z"/>
	<path id="XMLID_390_" class="st53" d="M5.3,9.6C4.8,8.9,4.5,8,4.5,7c0-2.5,2-4.5,4.5-4.5c1,0,1.9,0.3,2.6,0.8
		c0.3-1.1,1.2-1.8,2.4-1.8c1.4,0,2.5,1.1,2.5,2.5S15.4,6.5,14,6.5c-0.2,0-0.4,0-0.6-0.1c0,0.2,0.1,0.4,0.1,0.6c0,2.5-2,4.5-4.5,4.5
		c-0.2,0-0.4,0-0.6-0.1c0,0.2,0.1,0.4,0.1,0.6c0,1.4-1.1,2.5-2.5,2.5c-1.4,0-2.5-1.1-2.5-2.5C3.5,10.9,4.3,9.9,5.3,9.6z"/>
	<circle id="XMLID_389_" class="st54" cx="24" cy="22.5" r="20"/>
	<path id="XMLID_1061_" class="st24" d="M24,2.5c-11,0-20,9-20,20s9,20,20,20s20-9,20-20S35,2.5,24,2.5z M24,39.5
		c-10.1,0-18.2-8.2-18.2-18.2C5.8,11.2,13.9,3,24,3s18.2,8.2,18.2,18.2C42.2,31.3,34.1,39.5,24,39.5z"/>
	<ellipse id="XMLID_1060_" class="st39" cx="24" cy="6.5" rx="6" ry="1.5"/>
	<circle id="XMLID_1059_" class="st4" cx="24" cy="22.5" r="20"/>
	<ellipse id="XMLID_1058_" class="st55" cx="36.5" cy="27.5" rx="2.5" ry="1.5"/>
	<ellipse id="XMLID_1057_" class="st55" cx="11.5" cy="27.5" rx="2.5" ry="1.5"/>
	<ellipse id="XMLID_388_" class="st15" cx="24" cy="26" rx="4.5" ry="3.5"/>
	<path id="XMLID_387_" class="st16" d="M24,24.5c2,0,3.7,1.1,4.3,2.5c0.1-0.3,0.2-0.6,0.2-1c0-1.9-2-3.5-4.5-3.5
		c-2.5,0-4.5,1.6-4.5,3.5c0,0.4,0.1,0.7,0.2,1C20.3,25.6,22,24.5,24,24.5z"/>
	<ellipse id="XMLID_1010_" class="st4" cx="24" cy="26" rx="4.5" ry="3.5"/>
	<path id="XMLID_1009_" class="st15" d="M24,38c-4.8,0-7.9-2.5-9-4c-0.8-1.1-0.6-2.7,0.6-3.5c1.1-0.8,2.7-0.6,3.5,0.5
		c0.1,0.1,1.6,2,5,2c3.4,0,4.9-1.9,5-2c0.8-1.1,2.4-1.3,3.5-0.5c1.1,0.8,1.3,2.3,0.5,3.4C31.9,35.5,28.8,38,24,38z"/>
	<path class="st16" d="M32.5,30.5c-1.1-0.8-2.6-0.6-3.5,0.5c-0.1,0.1-1.6,2-5,2c-3.4,0-4.9-1.9-5-2c-0.8-1.1-2.4-1.3-3.5-0.5
		c-0.6,0.4-1,1.1-1,1.8c1.3-1.1,3.1-0.7,4,0.5c0.1,0.1,1.8,2.2,5.5,2.2s5.4-2.1,5.5-2.2c0.9-1.2,2.7-1.5,4-0.5
		C33.4,31.6,33.1,31,32.5,30.5z"/>
	<path id="XMLID_1007_" class="st4" d="M24,38c-4.8,0-7.9-2.5-9-4c-0.8-1.1-0.6-2.7,0.6-3.5c1.1-0.8,2.7-0.6,3.5,0.5
		c0.1,0.1,1.6,2,5,2c3.4,0,4.9-1.9,5-2c0.8-1.1,2.4-1.3,3.5-0.5c1.1,0.8,1.3,2.3,0.5,3.4C31.9,35.5,28.8,38,24,38z"/>
	<path id="XMLID_1006_" class="st4" d="M17.5,33c0,0,1.9,2.5,6.5,2.5s6.5-2.5,6.5-2.5"/>
	<ellipse id="XMLID_1005_" class="st56" cx="33.5" cy="20.5" rx="3.5" ry="4"/>
	<ellipse id="XMLID_1004_" class="st56" cx="14.5" cy="20.5" rx="3.5" ry="4"/>
	<circle id="XMLID_386_" class="st11" cx="14.5" cy="20.5" r="1"/>
	<circle id="XMLID_385_" class="st11" cx="33.5" cy="20.5" r="1"/>
	<path id="XMLID_384_" class="st4" d="M30,14c0,0,0.9-2.5,3.5-2.5c2.6,0,3.5,2.5,3.5,2.5"/>
	<path id="XMLID_383_" class="st4" d="M11,14c0,0,0.9-2.5,3.5-2.5c2.6,0,3.5,2.5,3.5,2.5"/>
</g>
</svg>
